# xmcd
#
# Track frame offsets: 
#        150
#        16068
#        35187
#        54570
#        75034
#        93845
#        113961
#        135139
#        159335
#        176889
#        201097
#        218436
#        238167
#        238467
#
# Disc length: 3588 seconds
#
# Revision: 0
# Processed by: cddbd v1.5.2PL0 Copyright (c) Steve Scherf et al.
# Submitted via: ExactAudioCopy v1.1
#
DISCID=ae0e020e
DTITLE=Paul Camilleri - Camilleri 4
DYEAR=2007
DGENRE=Blues Rock
TTITLE0=You Don't Know
TTITLE1=Angel Face
TTITLE2=Crazy For You
TTITLE3=We Found Love
TTITLE4=Count On You
TTITLE5=You're Fine
TTITLE6=You Gotta Do
TTITLE7=Strike Like Lightning
TTITLE8=Can't Get Any Better
TTITLE9=River Of Love
TTITLE10=Love Me Baby
TTITLE11=Gets Better
TTITLE12=Jealous Man
TTITLE13=Jealous Man (Radio Edit)
EXTD=
EXTT0=
EXTT1=
EXTT2=
EXTT3=
EXTT4=
EXTT5=
EXTT6=
EXTT7=
EXTT8=
EXTT9=
EXTT10=
EXTT11=
EXTT12=
EXTT13=
PLAYORDER=
